<svg width="12960" height="720" viewBox="0 0 12960 720" fill="none" xmlns="http://www.w3.org/2000/svg">
<path d="M11114 548.09C11099.6 548.09 11085.8 547.81 11072.3 547.41C11040 546.47 10934 539.24 10900.5 535.7C10866.5 532.1 10836.4 525.27 10804.5 518.05C10755.9 507.04 10705.6 495.66 10631.4 492.54C10546.2 488.96 10444.3 497.39 10319.9 518.3C10255.4 529.13 10181.8 523.01 10101.1 500.1C10047.9 485.01 9993.53 463.41 9934.86 434.08C9927.64 430.47 9920.25 426.73 9912.69 422.91C9826.41 379.28 9719.03 324.98 9592.78 322.15C9589.93 322.09 9587.06 322.05 9584.19 322.05C9489.81 322.05 9389.11 356.31 9282.68 392.52C9177.96 428.15 9069.67 464.99 8966.47 466.85C8879.15 468.43 8756.64 445.72 8683.44 432.15C8675.12 430.61 8667.48 429.19 8660.65 427.95C8656.57 427.21 8653.87 423.31 8654.61 419.23C8655.35 415.16 8659.25 412.45 8663.33 413.19C8670.18 414.43 8677.84 415.85 8686.18 417.4C8758.82 430.87 8880.4 453.41 8966.2 451.85C9067.06 450.03 9174.22 413.57 9277.85 378.31C9388.81 340.56 9493.6 304.91 9593.12 307.14C9722.77 310.05 9831.83 365.2 9919.46 409.51C9927 413.32 9934.36 417.05 9941.56 420.65C9999.38 449.56 10052.9 470.83 10105.2 485.66C10183.8 507.96 10255.2 513.96 10317.4 503.5C10442.8 482.41 10545.7 473.92 10632 477.54C10707.6 480.72 10760.8 492.77 10807.8 503.41C10839.2 510.53 10868.9 517.26 10902.1 520.77C10935.4 524.29 11040.6 531.46 11072.7 532.4C11163.9 535.06 11273.2 532.62 11417.6 469.47C11499.7 433.55 11551.1 400.4 11592.5 373.76C11658.6 331.19 11698.4 305.5 11791.8 312.73C11832.5 315.89 11875.8 341.75 11925.8 371.7C12007.1 420.3 12108.2 480.79 12255.2 483.77C12259.4 483.85 12262.7 487.28 12262.6 491.42C12262.5 495.56 12259.1 498.86 12254.9 498.77C12103.9 495.71 12000.9 434.09 11918.1 384.57C11869.7 355.59 11827.8 330.56 11790.6 327.68C11748.9 324.45 11716.8 327.91 11686.7 338.89C11658.2 349.23 11632.8 365.62 11600.6 386.37C11558.8 413.3 11506.8 446.82 11423.6 483.21C11297.8 538.24 11198.2 548.07 11114 548.07L11114 548.09Z" fill="#CFD0C2"/>
<path d="M2509.54 482.53C2504.57 482.53 2499.73 482.45 2494.97 482.3C2433.59 480.29 2433.26 473.641 2405.2 464.674C2401.68 462.494 2404.47 466.458 2406.65 462.938C2408.83 459.418 2411.52 455.841 2415.04 458.021C2472.9 467.32 2436.88 465.4 2495.46 467.32C2553.6 469.23 2627.41 459.23 2742.26 433.88C2800.3 421.07 2872.44 399.16 2913.79 381.77C2932.77 373.79 2948.81 365.81 2962.96 358.76C3004.54 338.06 3032.01 324.39 3070.73 342.95C3074.47 344.74 3076.04 349.22 3074.25 352.95C3072.46 356.69 3067.98 358.26 3064.25 356.47C3032.13 341.08 3009.94 352.13 2969.65 372.18C2955.3 379.32 2939.03 387.42 2919.61 395.59C2877.54 413.28 2804.32 435.54 2745.5 448.52C2638.65 472.1 2566.68 482.54 2509.54 482.54V482.53Z" fill="#C7C6B6"/>
<path d="M2336.4 476.02C2308.92 476.02 2282.03 473.89 2254.51 469.61C2209.78 462.66 2161.87 449.62 2103.74 428.58C2064.41 414.35 2033.68 397.28 2003.96 380.77C1957.76 355.11 1917.87 332.96 1859.45 330.23C1815.49 328.18 1798.72 335.14 1773.34 345.68C1741.49 358.91 1697.87 377.03 1576.11 386.13C1571.98 386.44 1568.38 383.34 1568.07 379.21C1567.76 375.08 1570.86 371.48 1574.99 371.17C1694.34 362.25 1736.67 344.66 1767.58 331.83C1792.86 321.33 1812.83 313.04 1860.15 315.25C1922.08 318.14 1965.39 342.2 2011.25 367.66C2040.46 383.88 2070.66 400.65 2108.85 414.48C2166.05 435.18 2213.07 447.99 2256.82 454.79C2304.7 462.23 2350.68 462.98 2401.51 457.14L2401.75 457.11C2420.82 458.888 2408.68 458.599 2431.53 462.07C2435.56 461.09 2439.8 461.811 2440.78 465.831C2441.76 469.851 2441.62 467.165 2437.6 468.145C2414.21 473.835 2434.5 468.45 2403.47 472.01L2403.23 472.04C2380.19 474.69 2358.12 476.01 2336.41 476.01L2336.4 476.02Z" fill="#C7C6B6"/>
<path d="M4787.56 432.56C4786.3 432.56 4785.03 432.24 4783.85 431.58C4679.73 372.26 4577.63 320.55 4473.26 339.05C4439.21 345.09 4406.96 352.3 4375.77 359.27C4335.56 368.26 4293.98 377.56 4249.22 384.11C4153.03 398.19 4096.54 399.44 4025.35 389.09C3941.7 376.92 3888.79 362.21 3815.68 330.78C3756.87 305.5 3691.04 292.14 3625.27 292.14C3625.05 292.14 3624.84 292.14 3624.62 292.14C3558.64 292.23 3492.6 305.76 3433.67 331.28C3429.87 332.93 3425.45 331.18 3423.81 327.38C3422.16 323.58 3423.91 319.16 3427.71 317.52C3488.51 291.19 3556.59 277.23 3624.6 277.14C3624.82 277.14 3625.04 277.14 3625.26 277.14C3693.05 277.14 3760.93 290.92 3821.6 317C3893.36 347.85 3945.32 362.29 4027.51 374.25C4097.08 384.37 4152.48 383.12 4247.05 369.28C4291.26 362.81 4330.72 353.98 4372.5 344.64C4403.85 337.63 4436.27 330.38 4470.65 324.28C4579.95 304.91 4684.69 357.82 4791.28 418.55C4794.88 420.6 4796.13 425.18 4794.08 428.78C4792.7 431.21 4790.16 432.57 4787.56 432.57V432.56Z" fill="#C7C6B6"/>
<path d="M1144.53 424.72C1081.02 409.73 1005.77 349.56 991.33 337.65C983.75 331.4 976.63 325.38 969.75 319.56C927.07 283.47 896.23 257.39 847.56 253.65C795.77 249.67 757.8 271.39 727.3 288.84C719.59 293.25 712.3 297.42 705.25 300.94C691.19 307.97 652.35 325.64 595.32 337.96C530.89 351.87 464.18 354.75 397.05 346.52C330.49 338.36 271.11 315.77 191.02 279.5C140.9 256.8 52.05 192.37 0 142.33V162.85C54.03 212.27 136.77 271.4 184.85 293.17C266.26 330.03 326.78 353.02 395.24 361.41C464.04 369.85 532.42 366.89 598.5 352.62C657.2 339.95 697.41 321.64 711.97 314.36C719.39 310.65 726.85 306.38 734.76 301.86C764.98 284.57 799.22 264.98 846.42 268.61C890.26 271.98 919.54 296.75 960.07 331.02C966.99 336.87 974.14 342.92 981.79 349.23C990.01 356.01 1012.12 373.71 1039.94 391.76C1078.04 416.47 1112.07 432.47 1141.09 439.32C1141.67 439.46 1142.25 439.52 1142.82 439.52C1146.22 439.52 1149.3 437.19 1150.11 433.74C1151.06 429.71 1148.56 425.67 1144.53 424.72Z" fill="#C7C6B6"/>
<path d="M8326.06 394.82L8285.96 395.99C8108.28 401.95 7980.69 428.33 7845.61 456.27C7682.24 490.06 7514.29 524.8 7244.14 524.8C7190.46 524.8 7132.69 523.43 7070.17 520.4C6925.17 513.38 6853.94 472.39 6791.11 436.23C6740.1 406.87 6696.04 381.52 6624.61 379.08C6555.53 376.72 6514.64 401.1 6471.35 426.92C6423.34 455.55 6373.7 485.15 6277.77 483.78C6182.76 482.42 6104.47 492.54 6038.45 514.71C5979.35 534.56 5935.21 562.03 5892.52 588.59C5881.41 595.5 5869.92 602.65 5858.33 609.56C5794.82 647.45 5715.46 687.17 5646.01 719.99H5680.84C5743.26 689.92 5810.6 655.5 5866.02 622.44C5877.73 615.46 5889.28 608.27 5900.45 601.32C5944.34 574.01 5985.79 548.22 6043.23 528.92C6107.62 507.3 6184.27 497.43 6277.56 498.76C6279.73 498.79 6281.86 498.81 6283.99 498.81C6380.06 498.81 6432.59 467.49 6479.04 439.79C6520.38 415.14 6559.42 391.85 6624.1 394.06C6691.8 396.37 6734.36 420.87 6783.63 449.22C6847.94 486.23 6920.83 528.18 7069.45 535.37C7132.33 538.41 7190.35 539.79 7244.33 539.79C7515.75 539.79 7684.54 504.88 7848.65 470.94C7983.09 443.14 8110.07 416.87 8286.43 410.96L8326.5 409.79C8330.64 409.67 8333.9 406.21 8333.78 402.07C8333.66 397.93 8330.17 394.67 8326.06 394.79V394.82Z" fill="#CFD0C2"/>
<path fill-rule="evenodd" clip-rule="evenodd" d="M2607.74 278.87C2607.74 184.65 2531.09 108 2436.87 108C2342.65 108 2266 184.65 2265.99 278.87C2265.99 289.56 2266.99 300.03 2268.88 310.18H2253.65C2251.92 300 2251 289.54 2251 278.87C2251 176.38 2334.39 93 2436.87 93C2539.35 93 2622.73 176.38 2622.74 278.87C2622.74 315.289 2617.85 334.356 2600.83 360H2587.84L2587.48 359.51C2600.4 335.47 2607.74 308.01 2607.74 278.87Z" fill="#C7C6B6"/>
<path fill-rule="evenodd" clip-rule="evenodd" d="M7450.74 352.87C7450.74 258.65 7374.09 182 7279.87 182C7185.65 182 7109 258.65 7108.99 352.87C7108.99 363.56 7109.99 374.03 7111.88 384.18H7096.65C7094.92 374 7094 363.54 7094 352.87C7094 250.38 7177.39 167 7279.87 167C7382.35 167 7465.73 250.38 7465.74 352.87C7465.74 382.057 7458.97 409.692 7446.93 434.297H7430.48V433.51C7443.4 409.47 7450.74 382.01 7450.74 352.87Z" fill="#C7C6B6"/>
</svg>
