<svg width="6536" height="720" viewBox="0 0 6536 720" fill="none" xmlns="http://www.w3.org/2000/svg">
<path d="M1149.45 496.04C1148.5 496.04 1147.53 495.93 1146.57 495.7C1073.5 478.46 1007.86 432.65 966.459 370.03C958.219 357.57 950.479 344.06 942.999 331C918.169 287.67 894.709 246.73 852.599 235.86C833.239 230.86 812.289 233.37 790.309 243.31C770.849 252.11 751.389 266.44 734.029 284.77C721.099 298.41 709.049 313.72 697.389 328.52C678.709 352.24 659.399 376.76 635.119 396.54C577.979 443.1 495.499 459.94 414.479 441.58C372.669 432.11 333.499 414.29 295.609 397.06C268.499 384.73 240.459 371.98 212.119 362.66C151.219 342.65 69.4194 338.99 22.4594 388.73C17.7194 393.75 9.8094 393.98 4.7894 389.24C-0.230601 384.5 -0.4606 376.59 4.2794 371.57C29.1194 345.26 64.3994 329.13 106.319 324.92C141.929 321.35 181.209 326.19 219.919 338.91C249.569 348.65 278.229 361.69 305.959 374.3C344.389 391.78 380.689 408.29 419.999 417.19C454.899 425.1 491.369 425.88 525.459 419.46C561.139 412.74 593.589 398.11 619.319 377.14C641.449 359.1 659.079 336.72 677.739 313.03C689.749 297.78 702.159 282.02 715.879 267.55C735.449 246.9 757.619 230.63 779.999 220.51C807.299 208.16 833.829 205.18 858.839 211.63C911.149 225.14 938.369 272.62 964.689 318.55C972.309 331.85 979.519 344.42 987.319 356.22C1025.24 413.59 1085.38 455.55 1152.32 471.35C1159.04 472.94 1163.2 479.67 1161.62 486.39C1160.26 492.14 1155.13 496.02 1149.46 496.02L1149.45 496.04Z" fill="#C7C6B6"/>
<path d="M2520.44 481.27C2513.09 481.27 2505.99 481.11 2499.09 480.78C2452.86 478.59 2413.36 469.37 2373.15 450.84C2360.54 445.03 2439.78 451.85 2492.71 455.38C2495.21 455.55 2497.74 455.69 2500.28 455.81C2559.13 458.6 2634.66 448.96 2745.19 424.57C2802.98 411.82 2874.75 390.02 2915.85 372.73C2934.68 364.81 2950.64 356.86 2964.73 349.85C3006.08 329.27 3035.96 314.39 3076.89 334.01C3083.12 336.99 3085.74 344.46 3082.76 350.68C3079.78 356.91 3072.31 359.53 3066.09 356.55C3036.17 342.21 3016.02 352.24 2975.88 372.23C2961.46 379.41 2945.12 387.54 2925.55 395.77C2883.24 413.56 2809.65 435.94 2750.58 448.98C2650.53 471.06 2578.19 481.27 2520.44 481.27Z" fill="#C7C6B6"/>
<path d="M2307.21 478.44C2282.11 478.44 2255.32 477.28 2228.03 474.29C2156.21 466.42 2096.83 447.641 2051.54 418.471C2009.31 391.271 1976.84 355.72 1945.44 321.33C1901.73 273.47 1863.98 232.13 1811.09 225.52C1756.78 218.74 1678.97 276.19 1622.14 318.15C1599.47 334.89 1579.9 349.34 1564.52 357.93C1558.49 361.3 1550.88 359.14 1547.51 353.11C1544.14 347.08 1546.3 339.47 1552.33 336.1C1566.32 328.28 1585.31 314.27 1607.29 298.03C1637.8 275.5 1672.37 249.97 1707.72 230.4C1750.36 206.79 1785.18 197.08 1814.19 200.7C1876.22 208.45 1918.81 255.09 1963.9 304.46C1994.23 337.67 2025.58 372.001 2065.08 397.441C2107.08 424.491 2162.82 441.98 2230.75 449.43C2298.23 456.82 2362.72 452.591 2404.94 447.751C2440.48 443.671 2495.02 457.62 2488.29 459.17C2471.81 462.96 2444.47 468.37 2407.79 472.59C2381.31 475.63 2346.3 478.43 2307.2 478.43L2307.21 478.44Z" fill="#C7C6B6"/>
<path d="M4139.51 449.72C4100.6 449.72 4061.69 443.62 4024.57 431.4C3981.5 417.23 3941.56 395.19 3902.93 373.87C3875.4 358.68 3846.92 342.96 3817.9 330.49C3759.65 305.45 3694.43 292.22 3629.27 292.22C3629.05 292.22 3628.85 292.22 3628.63 292.22C3563.25 292.31 3497.84 305.71 3439.46 330.99C3433.37 333.62 3426.31 330.83 3423.68 324.75C3421.05 318.67 3423.84 311.6 3429.92 308.97C3491.28 282.4 3559.98 268.31 3628.6 268.22C3628.82 268.22 3629.05 268.22 3629.27 268.22C3697.67 268.22 3766.16 282.12 3827.38 308.44C3857.49 321.38 3886.48 337.38 3914.53 352.86C3952.19 373.64 3991.13 395.13 4032.07 408.6C4103.06 431.96 4181.07 431.4 4251.72 407.01C4281.56 396.71 4310.8 381.94 4339.07 367.66C4381.57 346.19 4425.52 323.99 4473.86 315.42C4584.64 295.78 4690.16 349.05 4797.51 410.21C4803.27 413.49 4805.28 420.82 4802 426.58C4798.72 432.34 4791.39 434.35 4785.63 431.07C4682.26 372.18 4580.95 320.82 4478.05 339.06C4433.19 347.01 4392.73 367.45 4349.9 389.09C4320.91 403.73 4290.94 418.87 4259.56 429.71C4220.92 443.05 4180.21 449.73 4139.51 449.73V449.72Z" fill="#C7C6B6"/>
<path d="M2441.47 106.46C2532.93 106.46 2607.34 180.87 2607.34 272.33C2607.34 280.81 2606.69 289.14 2605.46 297.29L2627.54 314.94C2630.68 301.23 2632.34 286.97 2632.34 272.33C2632.34 167.09 2546.72 81.4605 2441.47 81.4605C2336.22 81.4605 2250.6 167.08 2250.6 272.33C2250.6 294.23 2254.32 315.28 2261.14 334.89L2282.05 318.18C2277.86 303.61 2275.6 288.23 2275.6 272.34C2275.6 180.88 2350.01 106.47 2441.47 106.47V106.46Z" fill="#C7C6B6"/>
</svg>
