<svg width="12960" height="765" viewBox="0 0 12960 765" fill="none" xmlns="http://www.w3.org/2000/svg">
<path d="M1144.78 472.393C1076.62 456.313 1015.38 413.573 976.76 355.153C968.87 343.223 961.3 330.003 953.97 317.213C928.17 272.193 901.49 225.633 851.21 212.653C827.33 206.483 801.91 209.373 775.68 221.243C753.89 231.103 732.26 246.983 713.13 267.163C682.83 299.133 643.48 322.733 592.83 339.283C519.27 363.333 473.4 361.063 393.13 350.653C323.84 341.673 261.55 317.963 183.5 282.623C128.09 257.533 48.55 204.723 0 154.133V175.323C50.33 223.863 124.54 272.393 177.31 296.283C256.62 332.193 320.06 356.303 391.2 365.523C466.77 375.323 518.36 379.403 597.49 353.533C650.56 336.183 691.95 311.303 724.01 277.473C741.81 258.683 761.82 243.963 781.86 234.903C804.9 224.483 826.98 221.883 847.46 227.163C891.61 238.563 916.7 282.333 940.95 324.653C948.4 337.643 956.09 351.073 964.24 363.403C1004.94 424.983 1069.49 470.013 1141.33 486.973C1141.91 487.113 1142.49 487.173 1143.06 487.173C1146.46 487.173 1149.54 484.843 1150.35 481.393C1151.3 477.363 1148.8 473.323 1144.77 472.373L1144.78 472.393Z" fill="#C7C6B6"/>
<path d="M2510.07 472.28C2502.8 472.28 2495.77 472.12 2488.94 471.79C2460.92 470.46 2435.41 466.51 2410.7 459.42C2402.46 457.06 2393.57 461.01 2383.27 459.66C2378.59 459.05 2391.3 438.73 2420.08 446.42C2442.09 452.3 2464.85 455.63 2489.66 456.8C2548.97 459.61 2624.91 449.94 2735.89 425.45C2793.94 412.64 2866.07 390.72 2907.42 373.34C2926.4 365.36 2942.44 357.38 2956.59 350.33C2998.17 329.63 3025.64 315.96 3064.36 334.52C3068.1 336.31 3069.67 340.79 3067.88 344.52C3066.09 348.26 3061.61 349.83 3057.88 348.04C3025.76 332.65 3003.57 343.7 2963.28 363.75C2948.93 370.89 2932.66 378.99 2913.24 387.16C2871.17 404.85 2797.95 427.11 2739.13 440.09C2639.44 462.09 2567.45 472.26 2510.09 472.26L2510.07 472.28Z" fill="#C7C6B6"/>
<path d="M2296.83 470.46C2271.89 470.46 2245.29 469.31 2218.19 466.34C2147.15 458.56 2088.5 440.03 2043.87 411.29C2002.19 384.44 1969.94 349.13 1938.75 314.98C1894.37 266.39 1856.04 224.42 1801.33 217.58C1745.04 210.55 1666.29 268.69 1608.79 311.15C1586.26 327.78 1566.81 342.15 1551.71 350.59C1548.09 352.61 1543.52 351.32 1541.5 347.7C1539.48 344.08 1540.77 339.51 1544.39 337.49C1558.66 329.52 1577.76 315.41 1599.88 299.08C1630.26 276.64 1664.7 251.22 1699.76 231.8C1741.44 208.72 1775.27 199.2 1803.19 202.69C1863.39 210.22 1905.38 256.19 1949.83 304.86C1980.37 338.3 2011.95 372.88 2052 398.67C2094.66 426.15 2151.13 443.89 2219.84 451.42C2287.78 458.86 2352.67 454.61 2395.14 449.73C2430.9 445.62 2433.3 460.44 2396.85 464.63C2370.52 467.65 2335.7 470.44 2296.84 470.44L2296.83 470.46Z" fill="#C7C6B6"/>
<path d="M4129.13 442.24C4090.69 442.24 4052.27 436.21 4015.6 424.15C3972.93 410.11 3933.18 388.17 3894.73 366.96C3867.1 351.71 3838.53 335.95 3809.3 323.38C3750.49 298.1 3684.66 284.74 3618.89 284.74C3618.67 284.74 3618.46 284.74 3618.24 284.74C3552.26 284.83 3486.22 298.36 3427.29 323.88C3423.49 325.53 3419.07 323.78 3417.43 319.98C3415.78 316.18 3417.53 311.76 3421.33 310.12C3482.13 283.79 3550.21 269.83 3618.22 269.74C3618.44 269.74 3618.66 269.74 3618.88 269.74C3686.67 269.74 3754.55 283.52 3815.22 309.59C3845.12 322.44 3874.02 338.39 3901.97 353.81C3939.81 374.69 3978.94 396.28 4020.28 409.89C4092.2 433.56 4171.23 432.99 4242.81 408.28C4272.94 397.88 4302.31 383.04 4330.72 368.69C4372.93 347.37 4416.58 325.32 4464.26 316.87C4573.56 297.49 4678.3 350.4 4784.89 411.14C4788.49 413.19 4789.74 417.77 4787.69 421.37C4785.64 424.97 4781.06 426.22 4777.46 424.17C4673.34 364.85 4571.24 313.14 4466.87 331.64C4421.36 339.71 4378.72 361.25 4337.48 382.08C4308.63 396.66 4278.79 411.73 4247.7 422.46C4209.53 435.63 4169.32 442.23 4129.12 442.23L4129.13 442.24Z" fill="#C7C6B6"/>
<g clip-path="url(#clip0_40_2)">
<path fill-rule="evenodd" clip-rule="evenodd" d="M6103.37 720H6119.11C6126.44 695.592 6138.95 662.436 6159.38 629.56C6182.35 592.59 6210.73 563.17 6243.73 542.12C6284.91 515.84 6333.6 502.52 6388.44 502.52H8777.64C8872.46 502.52 9009.5 493.28 9083.7 467.26C9117.24 455.502 9149.89 436.302 9184.46 415.974L9184.65 415.86C9260.08 371.49 9345.6 321.2 9476.31 324.14C9612.55 327.2 9713.61 360.29 9714.61 360.62C9714.75 360.66 9714.88 360.7 9715.02 360.74L10240.7 502.89C10244.7 503.97 10248.8 501.61 10249.9 497.61C10251 493.61 10248.6 489.49 10244.6 488.41L9719.13 346.31C9713.65 344.53 9612.15 312.18 9476.66 309.14C9416.42 307.79 9360.12 317.29 9304.51 338.22C9256.04 356.459 9214.08 381.138 9177.05 402.918L9177.05 402.92C9143.06 422.92 9110.95 441.8 9078.74 453.1C9010.96 476.87 8878.68 487.51 8777.65 487.51H6388.44C6330.58 487.51 6279.09 501.68 6235.4 529.63C6200.47 551.97 6170.51 583.08 6146.36 622.07C6123.85 658.423 6110.7 694.471 6103.37 720Z" fill="#CFD0C2"/>
</g>
<defs>
<clipPath id="clip0_40_2">
<rect width="4155.15" height="455.53" fill="white" transform="translate(6095 309)"/>
</clipPath>
</defs>
</svg>
