<svg width="3240" height="743" viewBox="0 0 3240 743" fill="none" xmlns="http://www.w3.org/2000/svg">
<path d="M599 485C469 520 411.667 413.583 361 401V740H1183V425.985C1143.67 401.962 1099 267 891 508.35C739.119 684.582 648.804 471.591 599 485Z" fill="#D9D9D9"/>
<path d="M1635 559C1526.2 568.6 1464.33 507 1447 475V743H2251V411C2142.2 292.6 1989.67 377.667 1927 435C1853.4 492.6 1701.67 541.667 1635 559Z" fill="#D9D9D9"/>
<path d="M2828.14 395C2752.1 507 2606.36 508.333 2543 495V743H3240V395C3193.8 340.333 3087.14 231.8 3030.11 235C2958.82 239 2923.18 255 2828.14 395Z" fill="#D9D9D9"/>
</svg>
