<svg width="3240" height="720" viewBox="0 0 3240 720" fill="none" xmlns="http://www.w3.org/2000/svg">
<g clip-path="url(#clip0_7_4)">
<g clip-path="url(#clip1_7_4)">
<path d="M207.19 215.96C207.13 215.96 207.08 215.96 207.02 215.96C205.64 215.87 204.6 214.67 204.69 213.3C205.38 203.07 204.97 192.74 203.46 182.61C201.73 170.99 198.56 159.59 194.04 148.72C193.51 147.45 194.11 145.98 195.39 145.45C196.66 144.92 198.13 145.52 198.66 146.8C203.34 158.05 206.62 169.85 208.41 181.87C209.97 192.35 210.4 203.04 209.68 213.63C209.59 214.95 208.49 215.96 207.19 215.96Z" fill="#A8A895"/>
<path d="M221.5 215.01C221.5 215.01 221.42 215.01 221.39 215.01C220.01 214.95 218.94 213.78 219 212.4C219.38 203.85 218.95 195.25 217.72 186.84C215.31 170.32 209.86 154.4 201.52 139.53C200.84 138.33 201.27 136.8 202.48 136.13C203.68 135.45 205.21 135.88 205.88 137.09C214.52 152.5 220.16 168.99 222.66 186.12C223.93 194.85 224.38 203.77 223.99 212.63C223.93 213.97 222.82 215.02 221.49 215.02L221.5 215.01Z" fill="#A8A895"/>
<path d="M258.51 211.48C258.51 211.48 258.48 211.48 258.46 211.48C257.08 211.45 255.98 210.31 256.01 208.93C256.22 198.32 257.59 187.71 260.06 177.4C262.9 165.58 267.2 154.11 272.84 143.32C273.48 142.1 274.99 141.63 276.21 142.26C277.43 142.9 277.91 144.41 277.27 145.63C271.81 156.06 267.66 167.14 264.92 178.56C262.53 188.52 261.21 198.77 261.01 209.02C260.98 210.38 259.87 211.47 258.51 211.47V211.48Z" fill="#A8A895"/>
<path d="M246.42 211.13C245.09 211.13 243.98 210.08 243.92 208.74C243.53 199.88 243.97 190.96 245.25 182.23C247.75 165.1 253.4 148.61 262.03 133.2C262.7 132 264.23 131.57 265.43 132.24C266.63 132.91 267.06 134.44 266.39 135.64C258.05 150.51 252.6 166.43 250.19 182.95C248.96 191.37 248.53 199.97 248.91 208.51C248.97 209.89 247.9 211.06 246.52 211.12C246.48 211.12 246.44 211.12 246.41 211.12L246.42 211.13Z" fill="#A8A895"/>
<path d="M199.19 207.36H266.66V242.12C266.66 254.56 256.56 264.66 244.12 264.66H221.73C209.29 264.66 199.19 254.56 199.19 242.12V207.36Z" fill="#C7C6B6"/>
<path d="M233.22 184.44C267.031 184.44 294.44 157.031 294.44 123.22C294.44 89.4091 267.031 62 233.22 62C199.409 62 172 89.4091 172 123.22C172 157.031 199.409 184.44 233.22 184.44Z" fill="#14A39A"/>
<path d="M233.38 62C234.45 62.92 257.05 83.14 257.25 122.68C257.38 148.05 248.25 171.66 233.38 184.44V62Z" fill="#63B79F"/>
<path d="M233.38 62C232.31 62.92 209.71 83.14 209.51 122.68C209.38 148.05 218.51 171.66 233.38 184.44" fill="#63B79F"/>
<path d="M209.12 119.02L215.04 121.93C215.48 122.15 215.52 122.76 215.11 123.03L209.63 126.7L204.15 130.37C203.74 130.64 203.19 130.37 203.16 129.88L202.73 123.3L202.3 116.72C202.27 116.23 202.78 115.89 203.22 116.1L209.14 119.01L209.12 119.02Z" fill="#45B2BF"/>
<path d="M216.81 121.77L223.39 122.33C223.88 122.37 224.14 122.93 223.86 123.33L220.09 128.75L216.32 134.17C216.04 134.57 215.43 134.52 215.22 134.08L212.41 128.1L209.6 122.12C209.39 121.68 209.74 121.17 210.23 121.22L216.81 121.78V121.77Z" fill="#E4E4D8"/>
<path d="M226.04 123.14L232.63 123.43C233.12 123.45 233.4 123.99 233.14 124.41L229.6 129.98L226.06 135.55C225.8 135.96 225.18 135.94 224.96 135.5L221.91 129.65L218.86 123.8C218.63 123.37 218.96 122.85 219.45 122.87L226.04 123.16V123.14Z" fill="#45B2BF"/>
<path d="M238.42 122.34H245.02C245.51 122.34 245.82 122.87 245.57 123.29L242.27 129.01L238.97 134.73C238.73 135.15 238.11 135.15 237.87 134.73L234.57 129.01L231.27 123.29C231.03 122.87 231.33 122.34 231.82 122.34H238.42Z" fill="#E4E4D8"/>
<path d="M179.72 112.75L185.64 115.66C186.08 115.88 186.12 116.49 185.71 116.77L180.23 120.44L174.75 124.11C174.34 124.38 173.79 124.11 173.76 123.62L173.33 117.04L172.9 110.46C172.87 109.97 173.38 109.63 173.82 109.84L179.74 112.75H179.72Z" fill="#E5E5DA"/>
<path d="M188.76 112.98L195.24 111.71C195.72 111.62 196.12 112.08 195.97 112.54L193.83 118.78L191.69 125.02C191.53 125.48 190.93 125.6 190.61 125.23L186.27 120.26L181.93 115.29C181.61 114.92 181.81 114.34 182.29 114.25L188.77 112.98H188.76Z" fill="#45B2BF"/>
<path d="M202.75 114.75L208.07 118.9C208.47 119.21 208.4 119.86 207.95 120.07L201.91 122.89L195.87 125.71C195.42 125.92 194.92 125.53 194.98 125.01L195.7 118.04L196.42 111.07C196.47 110.55 197.04 110.29 197.43 110.6L202.75 114.75Z" fill="#E5E5DA"/>
<path d="M247.96 120.06L254.18 117.88C254.65 117.72 255.11 118.12 255.02 118.6L253.8 125.08L252.58 131.56C252.49 132.04 251.91 132.25 251.53 131.93L246.53 127.63L241.53 123.33C241.16 123.01 241.27 122.4 241.74 122.24L247.96 120.06Z" fill="#45B2BF"/>
<path d="M259.9 114.73L265.37 111.03C265.78 110.75 266.33 111.03 266.36 111.51L266.83 118.09L267.3 124.67C267.33 125.16 266.83 125.5 266.38 125.29L260.45 122.41L254.52 119.53C254.08 119.32 254.03 118.7 254.44 118.43L259.91 114.73H259.9Z" fill="#E4E4D8"/>
<path d="M273.6 112.25L279.79 114.54C280.25 114.71 280.35 115.32 279.98 115.63L274.9 119.84L269.82 124.05C269.44 124.36 268.87 124.15 268.78 123.67L267.67 117.17L266.56 110.67C266.48 110.19 266.95 109.79 267.41 109.96L273.6 112.25Z" fill="#45B2BF"/>
<path d="M286.32 112.84L292.62 110.88C293.09 110.73 293.54 111.15 293.43 111.63L291.98 118.06L290.53 124.49C290.42 124.97 289.83 125.15 289.47 124.82L284.62 120.35L279.77 115.88C279.41 115.55 279.54 114.95 280.01 114.8L286.31 112.84H286.32Z" fill="#45B2BF"/>
<path d="M281.06 113.03H287.65C288.14 113.03 288.45 113.56 288.2 113.99L284.9 119.7L281.6 125.41C281.35 125.84 280.74 125.84 280.49 125.41L277.19 119.7L273.89 113.99C273.64 113.56 273.95 113.03 274.44 113.03H281.03H281.06Z" fill="#E4E4D8"/>
<path d="M230.5 125.43C223.52 125.43 212.68 125.07 202.95 117.83C200.92 116.32 199.05 114.59 197.38 112.67C195.57 113.85 192.88 115.48 190.82 116.21C186.2 117.86 180.45 116.57 173.73 112.38C172.56 111.65 172.2 110.11 172.93 108.94C173.66 107.77 175.2 107.41 176.37 108.14C181.73 111.48 186.03 112.61 189.13 111.5C191.3 110.72 195.13 108.19 196.42 107.28L198.39 105.89L199.85 107.8C201.6 110.09 203.65 112.12 205.93 113.81C214.88 120.47 225.37 120.43 231.64 120.42C237.38 120.4 244.52 120.38 251.94 116.56C257.62 113.63 265.33 107.55 265.41 107.48L267.15 106.1L268.73 107.67C269.86 108.8 271.15 109.67 272.56 110.28C273.62 110.73 275.51 111.31 279.7 111.16C283.46 111.02 287.24 110.33 290.95 109.11C292.26 108.68 293.67 109.39 294.11 110.7C294.54 112.01 293.83 113.42 292.52 113.86C288.37 115.22 284.12 116 279.9 116.15C274.71 116.35 272.11 115.51 270.61 114.87C269.28 114.3 268.03 113.57 266.88 112.67C264.2 114.7 258.76 118.67 254.25 121C245.76 125.37 237.62 125.4 231.67 125.42C231.3 125.42 230.91 125.42 230.51 125.42L230.5 125.43Z" fill="#1A4869"/>
<path d="M266.66 207.36H199.19V218.85L266.66 208.98V207.36Z" fill="#A8A895"/>
</g>
</g>
<defs>
<clipPath id="clip0_7_4">
<rect width="122.44" height="202.66" fill="white" transform="translate(172 62)"/>
</clipPath>
<clipPath id="clip1_7_4">
<rect width="122.44" height="202.66" fill="white" transform="translate(172 62)"/>
</clipPath>
</defs>
</svg>
